<?xml version="1.0" encoding="UTF-8" standalone="no"?>
<!-- Created with Inkscape (http://www.inkscape.org/) -->

<svg
   version="1.1"
   id="svg2"
   xml:space="preserve"
   width="1600.5095"
   height="502.77777"
   viewBox="0 0 480.15286 150.83333"
   xmlns:xlink="http://www.w3.org/1999/xlink"
   xmlns="http://www.w3.org/2000/svg"
   xmlns:svg="http://www.w3.org/2000/svg"
   xmlns:rdf="http://www.w3.org/1999/02/22-rdf-syntax-ns#"
   xmlns:cc="http://creativecommons.org/ns#"
   xmlns:dc="http://purl.org/dc/elements/1.1/"><metadata
     id="metadata8"><rdf:RDF><cc:Work
         rdf:about=""><dc:format>image/svg+xml</dc:format><dc:type
           rdf:resource="http://purl.org/dc/dcmitype/StillImage" /></cc:Work></rdf:RDF></metadata><defs
     id="defs6"><linearGradient
       id="linearGradient1220"><stop
         id="stop1216"
         offset="0"
         style="stop-color:#98bf00;stop-opacity:1;" /><stop
         id="stop1218"
         offset="1"
         style="stop-color:#98bf00;stop-opacity:0.51" /></linearGradient><linearGradient
       x1="0"
       y1="0"
       x2="1"
       y2="0"
       gradientUnits="userSpaceOnUse"
       gradientTransform="matrix(-139.45511,-135.52185,-135.52185,139.45511,177.4727,131.75308)"
       spreadMethod="pad"
       id="linearGradient28"><stop
         style="stop-opacity:1;stop-color:#00afbc"
         offset="0"
         id="stop24" /><stop
         style="stop-opacity:1;stop-color:#205374"
         offset="1"
         id="stop26" /></linearGradient><clipPath
       clipPathUnits="userSpaceOnUse"
       id="clipPath38"><path
         d="M 0,127.984 H 415.474 V 0 H 0 Z"
         id="path36" /></clipPath><linearGradient
       xlink:href="#linearGradient1220"
       id="linearGradient947"
       gradientUnits="userSpaceOnUse"
       x1="14.915152"
       y1="14.167241"
       x2="214.11908"
       y2="111.76186"
       gradientTransform="matrix(4.4444443,0,0,-4.4444443,-33.008887,535.8)" /><clipPath
       clipPathUnits="userSpaceOnUse"
       id="clipPath38-9"><path
         d="M 0,127.984 H 415.474 V 0 H 0 Z"
         id="path36-1" /></clipPath></defs><g
     id="g10"
     transform="matrix(1.3333333,0,0,-1.3333333,-9.9026662,160.74)"><g
   id="g40"
   transform="translate(175.9982,95.8645)" /><g
   id="g44"
   transform="translate(152.1193,64.9934)" />






<g
   id="NGI0Entrust"><title
     id="title12661">NGI Zero Entrust</title><path
     id="path7692"
     style="fill:#ffffff;fill-opacity:1;stroke:none;stroke-width:0.999999"
     d="m 133.10651,96.933602 c -6.67899,0 -12.68988,-1.41201 -18.02988,-4.23501 -5.344,-2.822 -9.51678,-6.73803 -12.52178,-11.74702 -3.004994,-5.008 -4.507906,-10.66967 -4.507906,-16.982669 0,-6.314995 1.502912,-11.974991 4.507906,-16.983985 3.005,-5.008995 7.14794,-8.924024 12.42993,-11.747021 5.282,-2.823998 11.23084,-4.23501 17.84883,-4.23501 4.613,0 9.19693,0.698875 13.75093,2.094873 0.045,0.014 0.0912,0.02819 0.13623,0.04219 7.10399,2.201999 11.88413,8.859686 11.88413,16.29668 v 9.047022 c 0,3.581996 -2.90333,6.485889 -6.48633,6.485889 h -0.50581 c -0.064,0 -0.12704,-0.0077 -0.19204,-0.0097 -0.064,0.002 -0.12704,0.0097 -0.19204,0.0097 h -7.28306 c -3.92899,0 -7.35908,-2.964914 -7.61308,-6.884912 -0.278,-4.295996 3.12428,-7.86709 7.36128,-7.86709 0.776,0 1.34293,-0.753702 1.11093,-1.493702 -0.65799,-2.087998 -2.34102,-3.751009 -4.54702,-4.333008 -2.07399,-0.546999 -4.27598,-0.820898 -6.60498,-0.820898 -4.00699,0 -7.57381,0.864972 -10.6998,2.594971 -3.127,1.729999 -5.5704,4.143993 -7.3314,7.23999 -1.761,3.095997 -2.64067,6.617018 -2.64067,10.564014 0,4.005996 0.87967,7.557666 2.64067,10.653656 1.761,3.097 4.2191,5.49317 7.3771,7.19517 3.156,1.698 6.76804,2.54883 10.83604,2.54883 4.68099,0 8.8649,-1.26899 12.5499,-3.80699 2.341,-1.61199 5.52423,-1.58761 7.75723,0.17139 3.47999,2.741 3.2889,8.04495 -0.31509,10.45196 -1.7,1.13599 -3.53807,2.11163 -5.51206,2.92763 -4.553,1.881 -9.62316,2.82305 -15.20816,2.82305 z m -93.706345,-1.09248 c -4.022996,0 -7.284815,-3.26081 -7.284815,-7.28482 v -49.17612 c 0,-4.022993 3.261819,-7.284815 7.284815,-7.284815 4.023996,0 7.284814,3.261822 7.284814,7.284815 V 62.34029 c 0,2.842996 3.564362,4.118722 5.36836,1.921728 L 76.282148,34.757135 c 1.383999,-1.685 3.450155,-2.661768 5.631153,-2.661768 h 1.380761 c 4.023997,0 7.286133,3.261822 7.286133,7.284815 v 49.17612 c 0,4.02401 -3.262136,7.28482 -7.286133,7.28482 -4.023995,0 -7.284815,-3.26081 -7.284815,-7.28482 V 65.615095 c 0,-2.844997 -3.568118,-4.119773 -5.370117,-1.917774 L 46.503925,93.172322 c -1.382997,1.69 -3.45199,2.6688 -5.635987,2.6688 z m 136.597415,-4.4e-4 c -4.074,0 -7.37578,-3.30178 -7.37578,-7.37578 V 39.472027 c 0,-4.073996 3.30178,-7.37622 7.37578,-7.37622 4.074,0 7.37622,3.302224 7.37622,7.37622 v 48.992875 c 0,4.074 -3.30222,7.37578 -7.37622,7.37578 z" /><path
     id="path30"
     style="fill:url(#linearGradient947);fill-opacity:1;stroke:none;stroke-width:4.44444"
     d="M 79.115234 30 C 52.097457 30 30 52.101902 30 79.115234 L 30 423.66211 C 30 450.67989 52.097457 472.77734 79.115234 472.77734 L 812.60352 472.77734 C 839.61685 472.77734 861.7207 450.67544 861.7207 423.66211 L 861.7207 342.50586 C 861.7207 333.51919 865.28844 324.89711 871.64844 318.53711 L 912.07617 278.11133 C 923.36506 266.82688 923.33313 248.52428 912.01758 237.27539 L 871.7207 197.19922 C 865.3207 190.83922 861.7207 182.18238 861.7207 173.16016 L 861.7207 79.115234 C 861.7207 52.101902 839.61685 30 812.60352 30 L 79.115234 30 z M 558.57812 104.87891 C 583.40035 104.87891 605.93437 109.06578 626.16992 117.42578 C 634.94325 121.05245 643.11241 125.38861 650.66797 130.4375 C 666.68575 141.13528 667.53503 164.7084 652.06836 176.89062 C 642.14392 184.7084 627.99624 184.81679 617.5918 177.65234 C 601.21402 166.37234 582.6189 160.73242 561.81445 160.73242 C 543.73445 160.73242 527.68096 164.51388 513.6543 172.06055 C 499.61874 179.62499 488.69385 190.27462 480.86719 204.03906 C 473.04052 217.79906 469.13086 233.58423 469.13086 251.38867 C 469.13086 268.93089 473.04052 284.57984 480.86719 298.33984 C 488.69385 312.09984 499.55339 322.82869 513.45117 330.51758 C 527.3445 338.20647 543.19697 342.05078 561.00586 342.05078 C 571.35697 342.05078 581.14355 340.83345 590.36133 338.40234 C 600.16577 335.81568 607.64587 328.42453 610.57031 319.14453 C 611.60142 315.85564 609.0817 312.50586 605.63281 312.50586 C 586.8017 312.50586 571.68046 296.63435 572.91602 277.54102 C 574.0449 260.11879 589.28973 246.94141 606.75195 246.94141 L 639.12109 246.94141 C 639.40998 246.94141 639.69016 246.97549 639.97461 246.98438 C 640.2635 246.97549 640.54368 246.94141 640.82812 246.94141 L 643.07617 246.94141 C 659.00062 246.94141 671.9043 259.84758 671.9043 275.76758 L 671.9043 315.97656 C 671.9043 349.0299 650.65927 378.61958 619.08594 388.40625 C 618.88594 388.46847 618.68047 388.53153 618.48047 388.59375 C 598.24047 394.79819 577.86746 397.9043 557.36523 397.9043 C 527.9519 397.9043 501.51266 391.63314 478.03711 379.08203 C 454.56155 366.53536 436.14852 349.13527 422.79297 326.87305 C 409.43741 304.61083 402.75781 279.45534 402.75781 251.38867 C 402.75781 223.33089 409.43741 198.16793 422.79297 175.91016 C 436.14852 153.64793 454.6942 136.24339 478.44531 123.70117 C 502.17865 111.15451 528.89368 104.87891 558.57812 104.87891 z M 142.10547 109.73438 L 148.62891 109.73438 C 158.33557 109.73438 167.53107 114.08459 173.67773 121.5957 L 280.94531 252.5957 C 288.9542 262.38237 304.8125 256.71671 304.8125 244.07227 L 304.8125 142.11133 C 304.8125 124.22688 319.30501 109.73438 337.18945 109.73438 C 355.0739 109.73438 369.57227 124.22688 369.57227 142.11133 L 369.57227 360.67188 C 369.57227 378.55187 355.0739 393.04883 337.18945 393.04883 L 331.05273 393.04883 C 321.3594 393.04883 312.1765 388.70764 306.02539 381.21875 L 198.3418 250.08594 C 190.32402 240.32149 174.48242 245.9914 174.48242 258.62695 L 174.48242 360.67188 C 174.48242 378.55187 159.98991 393.04883 142.10547 393.04883 C 124.22547 393.04883 109.72852 378.55187 109.72852 360.67188 L 109.72852 142.11133 C 109.72852 124.22688 124.22547 109.73438 142.10547 109.73438 z M 749.20508 109.73633 C 767.31174 109.73633 781.98828 124.41091 781.98828 142.51758 L 781.98828 360.26367 C 781.98828 378.37034 767.31174 393.04688 749.20508 393.04688 C 731.09841 393.04688 716.42383 378.37034 716.42383 360.26367 L 716.42383 142.51758 C 716.42383 124.41091 731.09841 109.73633 749.20508 109.73633 z "
     transform="matrix(0.22500001,0,0,-0.22500001,7.4269998,120.555)" /><g
     aria-label="Z E R O"
     transform="scale(1,-1)"
     id="text56"
     style="font-weight:600;font-size:31.76px;font-family:'Montserrat SemiBold';-inkscape-font-specification:Montserrat-SemiBold;fill:#6f9aa8"><path
       d="m 261.75384,-85.665085 -13.08512,15.97528 h 13.498 v 3.4936 H 243.206 v -2.76312 l 13.08512,-15.97528 h -12.8628 v -3.4936 h 18.32552 z"
       id="path12603" /><path
       d="m 278.84063,-75.787725 v 6.12968 h 12.5452 v 3.46184 h -16.674 v -22.232 h 16.22936 v 3.46184 h -12.10056 v 5.78032 h 10.73488 v 3.39832 z"
       id="path12605" /><path
       d="m 323.74919,-66.196205 h -4.4464 l -4.54168,-6.5108 q -0.28584,0.03176 -0.85752,0.03176 h -5.01808 v 6.47904 h -4.1288 v -22.232 h 9.14688 q 2.89016,0 5.01808,0.9528 2.15968,0.9528 3.30304,2.73136 1.14336,1.77856 1.14336,4.22408 0,2.50904 -1.23864,4.31936 -1.20688,1.81032 -3.4936,2.6996 z m -4.54168,-14.32376 q 0,-2.12792 -1.39744,-3.27128 -1.39744,-1.14336 -4.09704,-1.14336 h -4.82752 v 8.86104 h 4.82752 q 2.6996,0 4.09704,-1.14336 1.39744,-1.17512 1.39744,-3.30304 z"
       id="path12607" /><path
       d="m 347.12448,-65.878605 q -3.39832,0 -6.12968,-1.46096 -2.73136,-1.49272 -4.2876,-4.09704 -1.55624,-2.63608 -1.55624,-5.8756 0,-3.23952 1.55624,-5.84384 1.55624,-2.63608 4.2876,-4.09704 2.73136,-1.49272 6.12968,-1.49272 3.39832,0 6.12968,1.49272 2.73136,1.46096 4.2876,4.06528 1.55624,2.60432 1.55624,5.8756 0,3.27128 -1.55624,5.8756 -1.55624,2.60432 -4.2876,4.09704 -2.73136,1.46096 -6.12968,1.46096 z m 0,-3.62064 q 2.2232,0 4.00176,-0.98456 1.77856,-1.01632 2.79488,-2.79488 1.01632,-1.81032 1.01632,-4.03352 0,-2.2232 -1.01632,-4.00176 -1.01632,-1.81032 -2.79488,-2.79488 -1.77856,-1.01632 -4.00176,-1.01632 -2.2232,0 -4.00176,1.01632 -1.77856,0.98456 -2.79488,2.79488 -1.01632,1.77856 -1.01632,4.00176 0,2.2232 1.01632,4.03352 1.01632,1.77856 2.79488,2.79488 1.77856,0.98456 4.00176,0.98456 z"
       id="path12609" /></g><g
     aria-label="ENTRUST"
     transform="scale(0.99994801,-1.000052)"
     id="Entrust"
     style="font-weight:bold;font-size:20.009px;font-family:'Montserrat SemiBold';-inkscape-font-specification:'Montserrat SemiBold, Bold';letter-spacing:3.55932px;fill:#6f9aa8;stroke-width:0.999947"><path
       d="m 245.81989,-41.935548 v 3.861737 h 7.90356 v 2.180981 h -10.50473 v -14.0063 h 10.2246 v 2.180981 h -7.62343 v 3.641638 h 6.76304 v 2.140963 z"
       id="path12612" /><path
       d="m 270.04847,-40.414864 v -9.484266 h 2.58116 v 14.0063 h -2.14096 l -7.72347,-9.484266 v 9.484266 h -2.58117 v -14.0063 h 2.14097 z"
       id="path12614" /><path
       d="m 285.39308,-35.89283 h -2.60117 v -11.80531 h -4.64209 v -2.20099 h 11.88535 v 2.20099 h -4.64209 z"
       id="path12616" /><path
       d="m 307.52074,-35.89283 h -2.80126 l -2.86129,-4.101845 q -0.18008,0.02001 -0.54024,0.02001 h -3.16142 v 4.081836 h -2.60117 v -14.0063 h 5.76259 q 1.82082,0 3.16142,0.60027 1.36061,0.60027 2.08094,1.720774 0.72032,1.120504 0.72032,2.661197 0,1.580711 -0.78035,2.721224 -0.76034,1.140513 -2.20099,1.700765 z m -2.86129,-9.024059 q 0,-1.340603 -0.88039,-2.060927 -0.8804,-0.720324 -2.58116,-0.720324 h -3.04137 v 5.582511 h 3.04137 q 1.70076,0 2.58116,-0.720324 0.88039,-0.740333 0.88039,-2.080936 z"
       id="path12618" /><path
       d="m 319.76395,-35.69274 q -2.90131,0 -4.52204,-1.620729 -1.62073,-1.640738 -1.62073,-4.682106 v -7.903555 h 2.60117 v 7.80351 q 0,4.121854 3.5616,4.121854 3.5416,0 3.5416,-4.121854 v -7.80351 h 2.56115 v 7.903555 q 0,3.041368 -1.62073,4.682106 -1.60072,1.620729 -4.50202,1.620729 z"
       id="path12620" /><path
       d="m 337.4296,-35.69274 q -1.62073,0 -3.14141,-0.460207 -1.50068,-0.460207 -2.38107,-1.220549 l 0.9004,-2.020909 q 0.86039,0.680306 2.10095,1.120504 1.26056,0.420189 2.52113,0.420189 1.5607,0 2.32105,-0.500225 0.78035,-0.500225 0.78035,-1.320594 0,-0.60027 -0.4402,-0.980441 -0.42019,-0.40018 -1.08049,-0.620279 -0.66029,-0.220099 -1.80081,-0.500225 -1.60072,-0.380171 -2.60117,-0.760342 -0.98044,-0.380171 -1.70076,-1.180531 -0.70032,-0.820369 -0.70032,-2.20099 0,-1.160522 0.62028,-2.100945 0.64029,-0.960432 1.90086,-1.520684 1.28057,-0.560252 3.1214,-0.560252 1.28058,0 2.52113,0.320144 1.24056,0.320144 2.14097,0.920414 l -0.82037,2.020909 q -0.92042,-0.540243 -1.92087,-0.820369 -1.00045,-0.280126 -1.94087,-0.280126 -1.54069,0 -2.30103,0.520234 -0.74034,0.520234 -0.74034,1.380621 0,0.60027 0.42019,0.980441 0.4402,0.380171 1.1005,0.60027 0.66029,0.220099 1.80081,0.500225 1.5607,0.360162 2.56115,0.760342 1.00045,0.380171 1.70076,1.180531 0.72033,0.80036 0.72033,2.160972 0,1.160522 -0.64029,2.100945 -0.62028,0.940423 -1.90085,1.500675 -1.28058,0.560252 -3.12141,0.560252 z"
       id="path12622" /><path
       d="m 354.47498,-35.89283 h -2.60117 v -11.80531 h -4.64209 v -2.20099 h 11.88535 v 2.20099 h -4.64209 z"
       id="path12624" /></g></g>



<text
   style="font-style:normal;font-variant:normal;font-weight:bold;font-stretch:normal;font-size:20.01px;font-family:'Montserrat SemiBold';-inkscape-font-specification:'Montserrat SemiBold, Bold';font-variant-ligatures:normal;font-variant-caps:normal;font-variant-numeric:normal;font-feature-settings:normal;text-align:start;writing-mode:lr-tb;text-anchor:start;fill:#6f9aa8;fill-opacity:1;fill-rule:nonzero;stroke:none;stroke-width:1"
   id="text2843"
   x="240.16206"
   y="-35.894695"
   transform="scale(1,-1)"><tspan
     id="tspan2841"
     x="240.16206"
     y="-35.894695" /></text></g></svg>
